<?xml version="1.0" encoding="UTF-8" standalone="no"?>
<!-- Created with Inkscape (http://www.inkscape.org/) -->

<svg
   xmlns:dc="http://purl.org/dc/elements/1.1/"
   xmlns:cc="http://creativecommons.org/ns#"
   xmlns:rdf="http://www.w3.org/1999/02/22-rdf-syntax-ns#"
   xmlns:svg="http://www.w3.org/2000/svg"
   xmlns="http://www.w3.org/2000/svg"
   xmlns:sodipodi="http://sodipodi.sourceforge.net/DTD/sodipodi-0.dtd"
   xmlns:inkscape="http://www.inkscape.org/namespaces/inkscape"
   width="7.25in"
   height="8.1000004in"
   viewBox="0 0 184.15 205.74002"
   version="1.1"
   id="svg8"
   inkscape:version="0.92.1 r15371"
   sodipodi:docname="foobar-logo1.svg"
   style="enable-background:new">
  <defs
     id="defs2" />
  <sodipodi:namedview
     id="base"
     pagecolor="#ffffff"
     bordercolor="#666666"
     borderopacity="1.0"
     inkscape:pageopacity="0.0"
     inkscape:pageshadow="2"
     inkscape:zoom="0.35517974"
     inkscape:cx="723.05795"
     inkscape:cy="301.25839"
     inkscape:document-units="mm"
     inkscape:current-layer="layer1"
     showgrid="false"
     inkscape:window-width="1276"
     inkscape:window-height="796"
     inkscape:window-x="768"
     inkscape:window-y="0"
     inkscape:window-maximized="0"
     showguides="true"
     inkscape:guide-bbox="true"
     inkscape:measure-start="-204.122,385.72"
     inkscape:measure-end="-278.38,386.248"
     inkscape:showpageshadow="false"
     showborder="true"
     units="in"
     height="9.5in" />
  <metadata
     id="metadata5">
    <rdf:RDF>
      <cc:Work
         rdf:about="">
        <dc:format>image/svg+xml</dc:format>
        <dc:type
           rdf:resource="http://purl.org/dc/dcmitype/StillImage" />
        <dc:title></dc:title>
      </cc:Work>
    </rdf:RDF>
  </metadata>
  <g
     inkscape:label="Layer 1"
     inkscape:groupmode="layer"
     id="layer1"
     transform="translate(0,-91.259985)">
    <g
       id="g6054"
       transform="matrix(0.28485519,0,0,0.28485519,-62.6148,149.172)">
      <path
         id="path5955"
         d="m 299.514,397.357 c -8,0 -15.2,-4.8 -17.6,-12.8 -2.4,-7.2 0,-15.2 6.4,-20 l -46.4,-144.8 24,-8 40.8,127.2 c 1.6,8 8,13.6 16,13.6 2.4,0 4,0 6.4,-0.8 l 60,-19.2 c 4.8,-1.6 15.2,-7.2 10.4,-23.2 l -31.2,-93.6 -0.8,-0.8 v -2.4 l -10.4,-31.2 24,-8 47.2,145.6 c 10.4,0 18.4,8.8 17.6,19.2 0,8 -5.6,15.2 -12.8,16.8 l -128,41.6 c -1.6,0.8 -4,0.8 -5.6,0.8 z"
         style="fill:#ffffff"
         inkscape:connector-curvature="0" />
      <path
         id="path5957"
         d="m 445.114,331.757 c -2.4,-7.2 -8.8,-12.8 -16.8,-12.8 l -46.4,-144.8 -24,8 10.4,31.2 v 0.8 1.6 l 0.8,0.8 29.6,92.8 c 0.8,2.4 1.6,5.6 1.6,8 l 13.6,44 20,-6.4 c 9.6,-3.2 14.4,-13.6 11.2,-23.2 z"
         style="fill:#f7eeba"
         inkscape:connector-curvature="0" />
      <rect
         id="rect5959"
         height="34.400002"
         width="96.800003"
         style="fill:#fbcf4c"
         transform="matrix(-0.9519,0.3064,-0.3064,-0.9519,683.4017,318.5488)"
         y="195.713"
         x="268.29901" />
      <polygon
         id="polygon5961"
         points="357.914,182.157 333.914,190.157 344.314,222.157 368.314,214.157 "
         style="fill:#edb248" />
      <path
         id="path5963"
         d="m 253.114,214.157 c -6.4,0.8 -12.8,-3.2 -15.2,-9.6 -0.8,-3.2 -0.8,-6.4 0.8,-9.6 2.4,-4.8 7.2,-8.8 12.8,-10.4 h 0.8 0.8 v -0.8 c -1.6,-5.6 -0.8,-11.2 2.4,-15.2 4,-4.8 8.8,-8.8 15.2,-11.2 3.2,-0.8 6.4,-1.6 9.6,-1.6 1.6,0 3.2,0 4.8,0 4.8,-9.6 13.6,-17.6 24,-20 4,-1.6 8.8,-2.4 12.8,-2.4 11.2,-0.8 22.4,5.6 27.2,16 h 1.6 c 2.4,-0.8 5.6,-1.6 8,-1.6 7.2,-0.8 14.4,3.2 16.8,10.4 1.6,4 0.8,8.8 -2.4,12.8 -3.2,4.8 -8,8 -12.8,8.8 l -100,32 c -2.4,1.6 -4.8,2.4 -7.2,2.4 z"
         style="fill:#ffffff"
         inkscape:connector-curvature="0" />
      <path
         id="path5965"
         d="m 375.514,158.957 c -3.2,-6.4 -9.6,-11.2 -16.8,-10.4 -2.4,0 -5.6,0.8 -8,1.6 h -1.6 c -4.8,-10.4 -16,-16.8 -27.2,-16 -4.8,0 -8.8,0.8 -12.8,2.4 -10.4,3.2 -19.2,10.4 -24,20 -1.6,0 -3.2,-0.8 -4.8,0 -3.2,0 -6.4,0.8 -9.6,1.6 -6.4,1.6 -11.2,5.6 -15.2,11.2 -1.6,2.4 -3.2,5.6 -3.2,8 1.6,-0.8 2.4,-0.8 4,-1.6 3.2,-0.8 6.4,-1.6 9.6,-1.6 1.6,0 3.2,0 4.8,0 4.8,-9.6 13.6,-17.6 24,-20 4,-1.6 8.8,-2.4 12.8,-2.4 11.2,-0.8 22.4,5.6 27.2,16 h 1.6 c 2.4,-0.8 5.6,-1.6 8,-1.6 7.2,-0.8 14.4,3.2 16.8,10.4 0,1.6 0.8,2.4 0.8,4 4.8,-1.6 8.8,-4.8 11.2,-8.8 3.2,-4 4,-8 2.4,-12.8 z"
         style="fill:#f7eeba"
         inkscape:connector-curvature="0" />
      <path
         id="path5967"
         d="m 321.914,352.557 c -8,-0.8 -14.4,-6.4 -16,-13.6 l -30.4,-94.4 92.8,-30.4 30.4,94.4 c 5.6,16 -5.6,21.6 -10.4,23.2 l -60,19.2 c -2.4,0.8 -4,1.6 -6.4,1.6 z"
         style="fill:#f4a23f"
         inkscape:connector-curvature="0" />
      <path
         id="path5969"
         d="m 398.714,308.557 -30.4,-94.4 -24,8 30.4,94.4 c 4.8,15.2 -4,20.8 -8.8,22.4 l 22.4,-7.2 c 4.8,-1.6 15.2,-6.4 10.4,-23.2 z"
         style="fill:#e28539"
         inkscape:connector-curvature="0" />
      <g
         id="g5979">
        <path
           id="path5971"
           d="m 447.514,204.557 c -2.4,-8.8 -8,-16.8 -16,-21.6 -5.6,-3.2 -12.8,-3.2 -19.2,-0.8 l -17.6,5.6 -4.8,-16 c -0.8,-2.4 -2.4,-4.8 -5.6,-4.8 0.8,-3.2 0,-6.4 -0.8,-10.4 -4.8,-12 -17.6,-18.4 -29.6,-15.2 -7.2,-10.4 -19.2,-16 -32,-15.2 -5.6,0 -10.4,0.8 -16,2.4 -10.4,3.2 -20,10.4 -25.6,20 -4,0 -8,0.8 -12,1.6 -8,2.4 -14.4,7.2 -19.2,13.6 -3.2,4.8 -4.8,10.4 -4.8,16 -4.8,2.4 -8.8,6.4 -11.2,11.2 -5.77878,14.96797 -2.84273,10.75019 -1.6,21.6 0.8,0.8 1.6,2.4 2.4,3.2 -1.6,1.6 -1.6,4 -0.8,6.4 l 45.6,140 c -9.6,11.2 -8,28 3.2,36.8 7.2,5.6 16.8,8 24.8,4.8 l 128,-41.6 c 13.6,-4 21.6,-19.2 17.6,-32.8 -2.4,-8.8 -9.6,-15.2 -18.4,-17.6 l -5.6,-16 17.6,-5.6 c 9.6,-3.2 16.8,-12 17.6,-22.4 0,-5.6 -0.8,-11.2 -2.4,-16.8 z m -202.4,-2.4 c -0.8,-3.2 2.4,-8 8.8,-9.6 h 0.8 c 4,-0.8 7.2,-5.6 5.6,-9.6 v -0.8 -0.8 0 c -0.8,-2.4 0,-5.6 1.6,-8 2.4,-4 6.4,-6.4 11.2,-8 3.2,-0.8 7.2,-1.6 10.4,-0.8 4,0.8 7.2,-1.6 8.8,-4.8 4,-8 10.4,-13.6 18.4,-16 3.2,-0.8 7.2,-1.6 10.4,-1.6 8,-0.8 16,3.2 20,10.4 0.8,2.4 2.4,4 4,4.8 2.4,0.8 4.8,0.8 6.4,0 l 0.8,-0.8 c 6.4,-2.4 13.6,0 14.4,4 0.8,2.4 0,4 -1.6,5.6 -2.4,3.2 -4.8,4.8 -8.8,5.6 l -100,32 c -4,3.2 -9.6,1.6 -11.2,-1.6 z m 117.6,22.4 28,86.4 c 2.4,7.2 0.8,11.2 -4.8,12.8 l -60,20 c -0.8,0 -2.4,0.8 -4,0.8 v 0 c -4.8,0 -7.2,-5.6 -8,-8 l -28,-87.2 z m -81.6,9.6 -5.6,-17.6 22.4,-7.2 54.4,-17.6 5.6,17.6 z m 156,100 c 1.6,5.6 -1.6,11.2 -6.4,13.6 l -128,41.6 c -5.6,1.6 -11.2,-1.6 -13.6,-6.4 -1.6,-4 0,-8.8 4,-11.2 2.4,-2.4 4,-5.6 2.4,-8.8 l -44,-137.6 8.8,-2.4 8,24.8 v 0 l 30.4,94.4 c 2.4,11.2 12,19.2 23.2,19.2 v 0 c 3.2,0 5.6,-0.8 8.8,-1.6 l 60,-19.2 c 12.8,-3.2 20,-16.8 16.8,-29.6 0,-1.6 -0.8,-2.4 -1.6,-4 l -30.4,-94.4 v 0 l -8,-24.8 8.8,-3.2 44,137.6 c 0.8,3.2 4,5.6 7.2,5.6 4.8,0 8.8,2.4 9.6,6.4 z m 11.2,-68 c 0,4 -3.2,7.2 -6.4,8 l -17.6,6.4 -24.8,-78.4 17.6,-5.6 c 2.4,-0.8 4.8,-0.8 7.2,0 4,3.2 7.2,7.2 8,12 l 15.2,47.2 c 0.8,3.2 0.8,7.2 0.8,10.4 z"
           style="fill:#4a2328"
           inkscape:connector-curvature="0"
           sodipodi:nodetypes="cccccccccccccccccccccccccccccccccccccccsccccccccccccccccccccccccccccccccccccccccccccccccscscccccccs" />
      </g>
      <g
         id="g5981" />
      <g
         id="g5983" />
      <g
         id="g5985" />
      <g
         id="g5987" />
      <g
         id="g5989" />
      <g
         id="g5991" />
      <g
         id="g5993" />
      <g
         id="g5995" />
      <g
         id="g5997" />
      <g
         id="g5999" />
      <g
         id="g6001" />
      <g
         id="g6003" />
      <g
         id="g6005" />
      <g
         id="g6007" />
      <g
         id="g6009" />
    </g>
    <g
       id="g7177"
       transform="matrix(-0.04983232,0.13111593,0.13111593,0.04983232,70.788067,155.52221)">
      <polygon
         id="polygon7089"
         points="10.115,420.455 102.946,327.625 208.191,432.871 139.062,502 "
         style="fill:#ffcdac" />
      <path
         id="path7091"
         d="M 273.954,59.506 314.31,19.15 c 12.225,-12.225 32.046,-12.225 44.271,0 l 9.896,9.896 c 8.491,8.491 8.491,22.259 0,30.75 L 342.844,85.429 353.858,74.415 376.492,51.78 c 8.491,-8.491 22.259,-8.491 30.75,0 L 423.9,68.436 c 8.491,8.491 8.491,22.259 0,30.75 l -36.538,36.538 13.904,-13.904 16.602,-16.602 c 8.491,-8.491 22.259,-8.491 30.75,0 l 16.656,16.656 c 8.491,8.491 8.491,22.259 0,30.75 l -31.947,31.947 13.564,-13.564 4.956,-4.956 c 8.491,-8.491 22.259,-8.491 30.75,0 l 10.306,10.306 c 11.998,11.998 11.998,31.452 0,43.451 L 434.712,278 Z"
         style="fill:#ff8c8c"
         inkscape:connector-curvature="0" />
      <path
         id="path7093"
         d="m 103.95,328.63 96.487,96.487 c 14.761,14.761 38.693,14.761 53.455,0 l 36.402,-36.402 c 8.063,-8.063 8.063,-21.137 0,-29.201 L 169.553,238.773 c -8.063,-8.063 -21.137,-8.063 -29.201,0 l -36.402,36.402 c -14.76,14.762 -14.76,38.693 0,53.455 z"
         style="fill:#878791"
         inkscape:connector-curvature="0" />
      <path
         id="path7095"
         d="m 225.634,107.826 18.769,-18.769 c 9.907,-9.907 22.795,-16.285 36.68,-18.155 v 0 c 19.763,-2.66 39.635,4.054 53.736,18.155 l 98.367,98.367 c 10.695,10.695 17.335,24.78 18.778,39.835 v 0 c 1.856,19.352 -5.031,38.521 -18.778,52.268 l -18.107,18.107 c -32.42,32.42 -71.993,56.78 -115.54,71.123 v 0 l -139.23,-139.229 -4.526,-55.35 c -1.67,-20.422 3.967,-40.772 15.906,-57.424 l 45.345,-63.243 c 8.145,-11.36 23.692,-14.483 35.592,-7.149 l 36.325,22.386"
         style="fill:#ff5a5a"
         inkscape:connector-curvature="0" />
      <path
         id="path7097"
         d="m 321.123,85.806 -47.54,47.54 c -12.09,12.09 -12.09,31.693 0,43.783 l 69.748,69.748 c 12.09,12.09 31.693,12.09 43.783,0 l 47.54,-47.54 z"
         style="fill:#d7d7e6"
         inkscape:connector-curvature="0" />
      <path
         id="path7099"
         d="m 203.482,416.743 14.424,-14.424 c 11.143,-11.143 11.143,-29.21 0,-40.353 L 164.2,308.26 c -11.143,-11.143 -29.21,-11.143 -40.353,0 l -14.424,14.424 z"
         style="fill:#ff5a5a"
         inkscape:connector-curvature="0" />
      <path
         id="path7101"
         d="M 499.977,169.287 489.67,158.981 c -3.359,-3.359 -7.292,-5.798 -11.483,-7.334 6.054,-11.919 4.112,-26.889 -5.84,-36.842 L 455.69,98.148 c -4.431,-4.43 -9.942,-7.385 -15.938,-8.628 0.336,-1.865 0.517,-3.772 0.517,-5.707 0,-8.479 -3.302,-16.45 -9.297,-22.447 L 414.314,44.71 c -8.25,-8.248 -19.946,-10.992 -30.496,-8.245 -1.366,-5.312 -4.118,-10.338 -8.269,-14.489 l -9.896,-9.897 c -16.104,-16.104 -42.31,-16.104 -58.414,0 l -34.768,34.768 -14.6,-8.997 c -16.298,-10.048 -37.808,-5.726 -48.965,9.834 l -45.345,63.243 c -13.304,18.558 -19.607,41.31 -17.746,64.067 l 3.941,48.194 c -6.037,1.031 -11.824,3.863 -16.475,8.512 l -36.402,36.402 c -15.853,15.854 -18.212,40.16 -7.093,58.54 L 3.044,413.384 c -3.905,3.905 -3.905,10.237 0,14.143 1.953,1.952 4.512,2.929 7.071,2.929 2.559,0 5.118,-0.977 7.071,-2.929 l 85.76,-85.759 90.419,90.419 c 0.229,0.229 0.468,0.443 0.701,0.666 l -62.076,62.075 c -3.905,3.905 -3.905,10.237 0,14.143 1.953,1.952 4.512,2.929 7.071,2.929 2.559,0 5.118,-0.977 7.071,-2.929 l 65.493,-65.492 c 5.025,1.719 10.281,2.584 15.538,2.584 12.24,0 24.48,-4.659 33.799,-13.977 l 36.402,-36.402 c 5.224,-5.224 8.163,-11.88 8.82,-18.717 43.452,-14.915 83.482,-39.88 115.964,-72.362 l 77.826,-77.825 c 15.881,-15.878 15.881,-41.715 0.003,-57.593 z m -172.23,-73.158 97.986,97.985 -45.691,45.691 c -8.172,8.172 -21.468,8.172 -29.64,0 l -69.748,-69.748 c -8.172,-8.171 -8.172,-21.469 0,-29.64 l 45.649,-45.649 c 0.485,0.45 0.975,0.893 1.444,1.361 z m 130.456,32.819 c 4.579,4.578 4.579,12.028 0,16.606 l -26.373,26.373 -33.264,-33.264 26.373,-26.373 c 2.218,-2.218 5.167,-3.439 8.304,-3.439 3.136,0 6.085,1.222 8.303,3.439 z M 391.868,55.414 c 3.136,0 6.085,1.222 8.303,3.439 l 16.656,16.655 c 2.218,2.218 3.439,5.167 3.439,8.304 0,3.137 -1.222,6.086 -3.439,8.304 l -6.031,6.031 c 0,0 -16.608,16.608 -16.612,16.612 l -9.76,9.76 -33.264,-33.264 24.39,-24.389 c 0.002,-0.002 0.004,-0.005 0.007,-0.007 l 8.008,-8.008 c 2.216,-2.216 5.166,-3.437 8.303,-3.437 z M 321.382,26.221 c 8.306,-8.306 21.823,-8.307 30.129,-0.001 l 9.896,9.897 c 2.218,2.218 3.439,5.167 3.439,8.303 0,3.135 -1.221,6.083 -3.436,8.3 0,0 -14.625,14.625 -14.626,14.626 l -10,10 c -11.938,-9.863 -26.776,-15.741 -42.14,-16.823 -0.146,-0.101 -0.294,-0.197 -0.445,-0.291 l -4.224,-2.603 z M 117.858,328.394 130.92,315.331 c 7.225,-7.227 18.985,-7.227 26.21,0 l 53.706,53.706 c 7.227,7.226 7.227,18.984 0,26.21 l -13.062,13.063 z m 165.364,53.247 -36.402,36.402 c -9.322,9.322 -23.67,10.618 -34.399,3.904 l 12.557,-12.558 c 15.023,-15.024 15.023,-39.471 0,-54.496 l -53.706,-53.706 c -15.025,-15.023 -39.472,-15.023 -54.496,0 l -11.647,11.648 c -4.323,-10.135 -2.364,-22.334 5.893,-30.591 l 36.401,-36.402 c 2.076,-2.075 4.803,-3.113 7.53,-3.113 2.727,0 5.453,1.038 7.528,3.113 l 120.74,120.74 c 4.153,4.153 4.153,10.908 10e-4,15.059 z m 124.785,-91.078 c -29.712,29.713 -66.187,52.695 -105.803,66.717 l -4.838,-4.838 c 0,0 0,0 0,-0.001 l -50.861,-50.861 -76.529,-76.528 -4.227,-51.69 c -1.476,-18.039 3.521,-36.073 14.065,-50.781 l 45.345,-63.243 c 5.063,-7.061 14.822,-9.02 22.219,-4.462 L 263.807,65 c -9.89,3.696 -18.98,9.488 -26.476,16.985 l -18.769,18.769 c -3.905,3.905 -3.905,10.237 0,14.143 3.906,3.904 10.236,3.904 14.143,0 l 18.769,-18.77 c 8.308,-8.308 19.297,-13.746 30.942,-15.314 8.996,-1.208 18.096,-0.056 26.432,3.124 l -42.337,42.337 c -15.97,15.97 -15.97,41.955 0,57.926 l 69.748,69.748 c 7.985,7.984 18.475,11.977 28.963,11.977 10.488,0 20.978,-3.992 28.963,-11.977 l 43.167,-43.167 c 2.479,5.485 4.077,11.372 4.658,17.433 1.576,16.439 -4.217,32.565 -15.895,44.242 z m 77.826,-77.826 -23.626,23.626 c 0.124,-3.33 0.033,-6.688 -0.291,-10.056 -1.402,-14.628 -7.118,-28.53 -16.267,-39.913 l 13.269,-13.269 c 4.578,-4.577 12.029,-4.579 16.607,0 l 10.306,10.306 c 8.083,8.079 8.083,21.226 0.002,29.306 z"
         inkscape:connector-curvature="0"
         style="fill:#4a2328;fill-opacity:1" />
      <g
         id="g7113" />
      <g
         id="g7115" />
      <g
         id="g7117" />
      <g
         id="g7119" />
      <g
         id="g7121" />
      <g
         id="g7123" />
      <g
         id="g7125" />
      <g
         id="g7127" />
      <g
         id="g7129" />
      <g
         id="g7131" />
      <g
         id="g7133" />
      <g
         id="g7135" />
      <g
         id="g7137" />
      <g
         id="g7139" />
      <g
         id="g7141" />
    </g>
    <g
       id="g6595"
       transform="matrix(0.18708917,0,0,0.18708917,46.854027,97.000631)">
      <ellipse
         id="ellipse6537"
         ry="237"
         rx="240.2"
         cy="244.847"
         cx="246.35001"
         style="fill:#ff7043" />
      <path
         id="path6539"
         d="m 398.95,55.247 c -1.1,-1.5 -2.6,-2.7 -4.3,-3.4 -106.3,-83.1 -259.8,-64.3 -342.8,42 -83,106.3 -64.3,259.7 42,342.8 106.3,83.1 259.7,64.3 342.8,-42 81.7,-104.6 65,-255.3 -37.7,-339.4 z m 49.1,102.3 c -25.5,-23 -54.9,-41.4 -86.8,-54.2 2.5,-13.9 12.3,-25.4 25.6,-30.1 26.8,22.9 47.7,51.8 61.2,84.3 z m -107,-61.3 c -15.3,-5 -30.9,-8.8 -46.8,-11.4 0.1,-18.6 0.2,-38.3 0.2,-59.3 26.4,6.4 51.5,17.7 73.9,33.1 -13.6,8.5 -23.4,22 -27.3,37.6 z m -67.9,-74.8 c 0,21.8 0,42.1 -0.2,61.2 -14.7,-1.4 -29.6,-1.8 -44.4,-1.3 -2.3,-17.9 -11,-34.4 -24.5,-46.4 -4.7,-3.9 -10,-7.2 -15.7,-9.6 17.3,-4.3 35,-6.5 52.7,-6.5 10.8,0.1 21.5,0.9 32.1,2.6 z m -126.5,18.6 h 0.2 c 15.4,-2 30.9,2.1 43.4,11.2 8.9,8.3 14.7,19.3 16.5,31.3 -58.6,4.4 -115,23.8 -163.9,56.4 23,-43.4 59.4,-78.1 103.8,-98.9 z m -121.9,146 c 0.5,-0.4 1,-0.9 1.4,-1.5 21.3,-33.6 96.4,-72.7 183,-80.9 v 0.5 c 0,45.4 -55.4,108.8 -99.8,159.7 -25.2,25.8 -47,54.5 -65.2,85.5 -27.2,-50 -34.2,-108.4 -19.4,-163.3 z m 34.6,187.1 c 0.2,-0.8 0.4,-1.5 0.5,-2.3 0,-17.9 33.3,-56.1 65.6,-92.9 49.3,-56.4 105.1,-120.4 105.1,-173.7 0,-0.7 -0.1,-1.2 -0.1,-1.9 14.1,-0.5 28.3,-0.1 42.4,1.2 -2.5,216.9 -17.2,261.3 -72.8,358 -0.2,0.4 -0.3,0.8 -0.4,1.3 -56.7,-10.8 -106.8,-42.9 -140.3,-89.7 z m 162.6,92.7 c 56.9,-100.3 69.9,-154.3 72.1,-359.7 14.8,2.4 29.3,5.9 43.5,10.5 -0.2,2.9 -0.4,5.7 -0.4,8.8 3,44.1 14.7,87.1 34.4,126.6 22.7,54.4 44.1,105.9 20.3,156 -41.1,37.8 -94.9,58.8 -150.7,58.8 -6.4,0 -12.8,-0.4 -19.2,-1 z m 201.2,-92.9 c 3.7,-43.6 -14.3,-86.8 -32,-129 -18.4,-37 -29.5,-77.2 -32.7,-118.4 0,-0.3 0,-0.6 0,-0.9 39.8,16.9 75,43.2 102.5,76.5 11.8,60 -1.9,122.2 -37.8,171.8 z"
         style="fill:#4a2328;fill-opacity:1;stroke:#4a2328;stroke-opacity:1"
         inkscape:connector-curvature="0" />
      <g
         id="g6541" />
      <g
         id="g6543" />
      <g
         id="g6545" />
      <g
         id="g6547" />
      <g
         id="g6549" />
      <g
         id="g6551" />
      <g
         id="g6553" />
      <g
         id="g6555" />
      <g
         id="g6557" />
      <g
         id="g6559" />
      <g
         id="g6561" />
      <g
         id="g6563" />
      <g
         id="g6565" />
      <g
         id="g6567" />
      <g
         id="g6569" />
    </g>
    <g
       id="g7200"
       transform="matrix(0.82290335,0,0,0.82290335,-92.107362,-115.47686)">
      <path
         d="m 324.68655,350.22458 a 54.781338,54.781338 0 0 1 -42.17365,64.96653 54.781338,54.781338 0 0 1 -64.98566,-42.14416 54.781338,54.781338 0 0 1 42.11466,-65.00478 54.781338,54.781338 0 0 1 65.02389,42.08516"
         sodipodi:open="true"
         sodipodi:end="6.071983"
         sodipodi:start="6.0737982"
         sodipodi:ry="54.781338"
         sodipodi:rx="54.781338"
         sodipodi:cy="361.61145"
         sodipodi:cx="271.10172"
         sodipodi:type="arc"
         id="path7179"
         style="opacity:1;fill:#ffffff;fill-opacity:1;stroke:none;stroke-width:5.26499987;stroke-linecap:round;stroke-linejoin:round;stroke-miterlimit:4;stroke-dasharray:none;stroke-opacity:1" />
      <g
         transform="matrix(1.516482,0,0,1.516482,216.22706,306.73755)"
         id="g6802">
        <g
           id="g6746">
          <path
             inkscape:connector-curvature="0"
             d="M 22.57,2.648 C 18.081,4.468 14.053,7.144 10.599,10.597 7.144,14.051 4.471,18.08 2.65,22.568 0.892,26.904 0,31.486 0,36.186 c 0,4.699 0.892,9.281 2.65,13.615 1.821,4.489 4.495,8.518 7.949,11.971 3.454,3.455 7.481,6.129 11.971,7.949 4.336,1.76 8.917,2.649 13.617,2.649 4.7,0 9.28,-0.892 13.616,-2.649 4.488,-1.82 8.518,-4.494 11.971,-7.949 3.455,-3.453 6.129,-7.48 7.949,-11.971 1.758,-4.334 2.648,-8.916 2.648,-13.615 0,-4.7 -0.891,-9.282 -2.648,-13.618 C 67.903,18.08 65.227,14.05 61.774,10.597 58.321,7.144 54.295,4.468 49.803,2.648 45.467,0.891 40.887,0 36.187,0 31.487,0 26.906,0.891 22.57,2.648 Z M 9.044,51.419 C 7.301,50.325 5.695,49.065 4.273,47.581 2.101,41.469 1.733,34.852 3.172,28.571 3.849,27.236 4.619,25.954 5.49,24.726 5.759,24.347 6.008,23.952 6.296,23.584 l 8.166,4.832 c 0,0.064 0,0.134 0,0.205 -0.021,4.392 0.425,8.752 1.313,13.049 0.003,0.02 0.006,0.031 0.01,0.049 l -6.333,9.93 C 9.314,51.579 9.177,51.503 9.044,51.419 Z m 24.28,16.787 c 1.409,0.719 2.858,1.326 4.347,1.82 -6.325,0.275 -12.713,-1.207 -18.36,-4.447 L 33,68.018 c 0.105,0.067 0.212,0.131 0.324,0.188 z M 33.274,65.735 17.12,62.856 c -1.89,-2.295 -3.59,-4.723 -5.051,-7.318 -0.372,-0.66 -0.787,-1.301 -1.102,-1.99 l 6.327,-9.92 c 0.14,0.035 0.296,0.072 0.473,0.119 3.958,1.059 7.986,1.812 12.042,2.402 0.237,0.033 0.435,0.062 0.604,0.08 l 7.584,13.113 c -1.316,1.85 -2.647,3.69 -4.007,5.51 -0.226,0.303 -0.466,0.594 -0.716,0.883 z M 60.15,60.149 c -1.286,1.287 -2.651,2.447 -4.08,3.481 -0.237,-1.894 -0.646,-3.75 -1.223,-5.563 l 8.092,-15.096 c 2.229,-1.015 4.379,-2.166 6.375,-3.593 0.261,-0.185 0.478,-0.392 0.646,-0.618 -0.586,7.801 -3.856,15.436 -9.81,21.389 z M 59.791,40.571 c 0.301,0.574 0.598,1.154 0.896,1.742 l -7.816,14.58 c -0.045,0.01 -0.088,0.02 -0.133,0.026 -4.225,0.789 -8.484,1.209 -12.779,1.229 l -7.8,-13.487 c 1.214,-2.254 2.417,-4.517 3.61,-6.781 0.81,-1.536 1.606,-3.082 2.401,-4.627 l 16.143,-1.658 c 1.977,2.9 3.85,5.862 5.478,8.976 z M 56.516,23.277 C 55.75,25.3 54.93,27.302 54.115,29.308 l -15.726,1.615 c -0.188,-0.248 -0.383,-0.492 -0.588,-0.725 -1.857,-2.103 -3.726,-4.193 -5.592,-6.289 0.017,-0.021 0.034,-0.037 0.051,-0.056 -0.753,-0.752 -1.508,-1.504 -2.261,-2.258 L 34.377,8.414 C 34.679,8.334 34.983,8.267 35.29,8.234 37.67,7.992 40.053,7.718 42.439,7.58 43.9,7.498 45.369,7.451 46.855,7.556 l 10.832,12.209 c -0.373,1.178 -0.737,2.359 -1.171,3.512 z M 60.15,12.221 c 2.988,2.99 5.302,6.402 6.938,10.047 C 65.064,20.875 62.9,19.729 60.625,18.795 60.271,18.649 59.908,18.52 59.539,18.393 L 48.877,6.376 c 0.074,-0.519 0.113,-1.039 0.129,-1.563 4.056,1.651 7.858,4.123 11.144,7.408 z M 25.334,4.182 c 0.042,0.031 0.062,0.057 0.086,0.064 2.437,0.842 4.654,2.082 6.744,3.553 l -4.09,12.317 c -0.021,0.006 -0.041,0.012 -0.061,0.021 -0.837,0.346 -1.69,0.656 -2.514,1.031 -3.395,1.543 -6.705,3.252 -9.823,5.301 L 7.605,21.694 c 0.012,-0.252 0.055,-0.508 0.141,-0.736 0.542,-1.444 1.075,-2.896 1.688,-4.311 0.472,-1.09 1.01,-2.143 1.597,-3.172 0.384,-0.424 0.782,-0.844 1.192,-1.254 3.833,-3.832 8.363,-6.553 13.186,-8.162 -0.025,0.039 -0.051,0.08 -0.075,0.123 z"
             id="path6744"
             style="fill:#4a2328;fill-opacity:1;stroke:#4a2328;stroke-opacity:1" />
        </g>
        <g
           id="g6748" />
        <g
           id="g6750" />
        <g
           id="g6752" />
        <g
           id="g6754" />
        <g
           id="g6756" />
        <g
           id="g6758" />
        <g
           id="g6760" />
        <g
           id="g6762" />
        <g
           id="g6764" />
        <g
           id="g6766" />
        <g
           id="g6768" />
        <g
           id="g6770" />
        <g
           id="g6772" />
        <g
           id="g6774" />
        <g
           id="g6776" />
      </g>
    </g>
    <g
       id="g6742"
       transform="matrix(-0.1501126,-0.14962067,-0.14962067,0.1501126,214.36683,226.59017)">
      <g
         id="g6657">
        <g
           id="g6599">
          <path
             id="path6597"
             d="m 284.826,9.539 c -0.008,0 -0.008,0 -0.008,0 -17.234,-12.719 -40.406,-12.719 -57.641,0 -77.133,57 -123.18,149.133 -123.18,246.453 0,97.32 46.047,189.453 123.187,246.453 8.617,6.359 18.711,9.547 28.812,9.547 10.101,0 20.203,-3.188 28.828,-9.547 77.125,-57 123.172,-149.133 123.172,-246.453 0,-97.32 -46.045,-189.453 -123.17,-246.453 z"
             style="fill:#996459;stroke:#4a2328;stroke-width:20.29387283;stroke-miterlimit:4;stroke-dasharray:none;stroke-opacity:1"
             inkscape:connector-curvature="0" />
        </g>
        <g
           id="g6603">
          <path
             id="path6601"
             d="m 259.20313,11.072566 c -9.52786,0.04275 -19.04717,3.048002 -27.17549,9.047098 C 158.7416,74.27682 113.28165,161.81475 113.28165,254.28097 c 0,92.46622 45.45995,180.00415 118.75264,234.16131 8.12833,5.99814 17.63908,9.01099 27.16789,9.05469 V 11.072566 Z"
             style="fill:#7e5c62;stroke-width:0.95012563"
             inkscape:connector-curvature="0"
             sodipodi:nodetypes="ccscccc" />
        </g>
        <g
           id="g6609">
          <g
             id="g6607">
            <path
               id="path6605"
               d="m 255.998,351.992 c -4.422,0 -8,-3.578 -8,-8 v -176 c 0,-4.422 3.578,-8 8,-8 4.422,0 8,3.578 8,8 v 176 c 0,4.422 -3.578,8 -8,8 z"
               style="fill:#e6be94"
               inkscape:connector-curvature="0" />
          </g>
        </g>
        <g
           id="g6615">
          <g
             id="g6613">
            <path
               id="path6611"
               d="m 279.998,263.992 h -48 c -4.422,0 -8,-3.578 -8,-8 0,-4.422 3.578,-8 8,-8 h 48 c 4.422,0 8,3.578 8,8 0,4.422 -3.578,8 -8,8 z"
               style="fill:#ffebb7"
               inkscape:connector-curvature="0" />
          </g>
        </g>
        <g
           id="g6621">
          <g
             id="g6619">
            <path
               id="path6617"
               d="m 279.998,231.992 h -48 c -4.422,0 -8,-3.578 -8,-8 0,-4.422 3.578,-8 8,-8 h 48 c 4.422,0 8,3.578 8,8 0,4.422 -3.578,8 -8,8 z"
               style="fill:#ffebb7"
               inkscape:connector-curvature="0" />
          </g>
        </g>
        <g
           id="g6627">
          <g
             id="g6625">
            <path
               id="path6623"
               d="m 279.998,295.992 h -48 c -4.422,0 -8,-3.578 -8,-8 0,-4.422 3.578,-8 8,-8 h 48 c 4.422,0 8,3.578 8,8 0,4.422 -3.578,8 -8,8 z"
               style="fill:#ffebb7"
               inkscape:connector-curvature="0" />
          </g>
        </g>
        <g
           id="g6633">
          <g
             id="g6631">
            <path
               id="path6629"
               d="m 279.998,199.992 h -48 c -4.422,0 -8,-3.578 -8,-8 0,-4.422 3.578,-8 8,-8 h 48 c 4.422,0 8,3.578 8,8 0,4.422 -3.578,8 -8,8 z"
               style="fill:#ffebb7"
               inkscape:connector-curvature="0" />
          </g>
        </g>
        <g
           id="g6639">
          <g
             id="g6637">
            <path
               id="path6635"
               d="m 279.998,327.992 h -48 c -4.422,0 -8,-3.578 -8,-8 0,-4.422 3.578,-8 8,-8 h 48 c 4.422,0 8,3.578 8,8 0,4.422 -3.578,8 -8,8 z"
               style="fill:#ffebb7"
               inkscape:connector-curvature="0" />
          </g>
        </g>
        <g
           id="g6643">
          <path
             id="path6641"
             d="M 138.07938,384.73857 374.16647,383.992 c -5,11 -10.635,21.679 -16.878,32 l -202.32909,0.74657 c -6.244,-10.321 -11.881,-20.999 -16.88,-32 z"
             style="fill:#ffebb7"
             inkscape:connector-curvature="0"
             sodipodi:nodetypes="ccccc" />
        </g>
        <g
           id="g6647">
          <path
             id="path6645"
             d="m 139.61003,127.992 h 231.20271 c -5,-11 -10.635,-21.679 -16.878,-32 H 156.49003 c -6.244,10.321 -11.881,21 -16.88,32 z"
             style="fill:#ffebb7"
             inkscape:connector-curvature="0"
             sodipodi:nodetypes="ccccc" />
        </g>
        <g
           id="g6651">
          <path
             id="path6649"
             d="m 255.779,383.992 -117.69962,0.74657 c 5,11 10.636,21.679 16.88,32 L 255.779,415.992 Z"
             style="fill:#e6be94"
             inkscape:connector-curvature="0"
             sodipodi:nodetypes="ccccc" />
        </g>
        <g
           id="g6655">
          <path
             id="path6653"
             d="m 255.779,95.992 h -99.28897 c -6.244,10.321 -11.88,21 -16.88,32 H 255.779 Z"
             style="fill:#e6be94"
             inkscape:connector-curvature="0"
             sodipodi:nodetypes="ccccc" />
        </g>
      </g>
      <g
         id="g6659" />
      <g
         id="g6661" />
      <g
         id="g6663" />
      <g
         id="g6665" />
      <g
         id="g6667" />
      <g
         id="g6669" />
      <g
         id="g6671" />
      <g
         id="g6673" />
      <g
         id="g6675" />
      <g
         id="g6677" />
      <g
         id="g6679" />
      <g
         id="g6681" />
      <g
         id="g6683" />
      <g
         id="g6685" />
      <g
         id="g6687" />
    </g>
    <g
       id="g7271"
       transform="translate(89.570597,96.84201)">
      <g
         transform="matrix(0.13904363,0,0,0.13904363,-12.929319,126.16255)"
         id="g6535">
        <circle
           style="fill:#edeef0"
           cx="230"
           cy="230"
           r="230"
           id="circle6471" />
        <path
           inkscape:connector-curvature="0"
           style="fill:#c8523b"
           d="m 383.325,373.009 -11.229,-16.551 c -3.242,2.199 -6.122,4.153 -8.808,5.974 -4.038,-6.747 -7.755,-13.604 -11.153,-20.558 l 9.432,-4.242 -8.207,-18.238 -9.332,4.197 c -2.803,-7.032 -5.289,-14.149 -7.449,-21.338 l 9.886,-2.552 -5.002,-19.365 -9.874,2.549 c -1.566,-7.244 -2.81,-14.547 -3.728,-21.901 l 10.196,-0.859 -1.682,-19.93 -10.208,0.86 c -0.162,-3.672 -0.245,-7.354 -0.245,-11.044 0,-3.696 0.083,-7.383 0.245,-11.061 3.123,0.263 6.463,0.544 10.211,0.859 l 1.676,-19.93 c -3.741,-0.314 -7.076,-0.595 -10.193,-0.857 0.918,-7.354 2.162,-14.659 3.728,-21.903 3.022,0.78 6.253,1.613 9.878,2.548 l 4.994,-19.367 c -3.627,-0.936 -6.859,-1.769 -9.883,-2.549 2.161,-7.19 4.646,-14.307 7.449,-21.34 l 9.332,4.198 8.205,-18.24 -9.43,-4.242 c 3.397,-6.953 7.115,-13.809 11.152,-20.555 l 8.811,5.972 11.225,-16.553 -9.169,-6.216 c 4.278,-6.137 8.823,-12.171 13.647,-18.088 -4.85,-4.576 -9.897,-8.945 -15.13,-13.09 -5.337,6.521 -10.361,13.176 -15.078,19.952 L 346.515,62.04 335.29,78.593 346.7,86.327 c -4.667,7.729 -8.935,15.599 -12.818,23.587 l -12.871,-5.79 -8.209,18.238 12.966,5.833 c -3.251,8.082 -6.124,16.268 -8.586,24.548 -4.12,-1.064 -8.547,-2.208 -13.772,-3.558 l -5.004,19.363 c 5.235,1.353 9.668,2.499 13.795,3.564 -1.826,8.336 -3.256,16.75 -4.286,25.227 -3.031,-0.256 -6.22,-0.525 -9.76,-0.824 l -4.405,-0.372 -1.682,19.93 4.405,0.371 c 3.538,0.299 6.725,0.568 9.755,0.824 -0.199,4.236 -0.305,8.484 -0.305,12.743 0,4.252 0.106,8.494 0.305,12.723 l -14.159,1.193 1.68,19.93 14.166,-1.193 c 1.031,8.476 2.46,16.889 4.286,25.225 l -13.793,3.561 5,19.365 13.774,-3.556 c 2.462,8.28 5.334,16.464 8.584,24.545 l -12.964,5.83 8.205,18.24 12.873,-5.79 c 3.884,7.99 8.152,15.861 12.819,23.59 l -11.409,7.731 11.223,16.555 11.079,-7.508 c 4.717,6.775 9.741,13.431 15.077,19.951 5.234,-4.145 10.28,-8.513 15.13,-13.089 -4.824,-5.916 -9.368,-11.95 -13.646,-18.086 2.789,-1.89 5.785,-3.921 9.172,-6.219 z"
           id="path6473" />
        <path
           inkscape:connector-curvature="0"
           style="fill:#c8523b"
           d="m 154.076,230.012 c 0,-4.259 -0.106,-8.506 -0.304,-12.743 3.073,-0.259 6.311,-0.533 9.911,-0.836 l 4.249,-0.358 -1.682,-19.93 -4.25,0.359 c -3.602,0.304 -6.84,0.577 -9.915,0.836 -1.031,-8.477 -2.46,-16.891 -4.286,-25.227 4.127,-1.065 8.56,-2.211 13.795,-3.564 l -5.005,-19.363 c -5.225,1.35 -9.651,2.494 -13.771,3.558 -2.462,-8.281 -5.335,-16.466 -8.586,-24.548 l 12.966,-5.833 -8.209,-18.238 -12.871,5.79 C 122.235,101.926 117.967,94.057 113.3,86.328 L 124.709,78.594 113.484,62.04 102.407,69.549 C 97.69,62.773 92.666,56.117 87.329,49.597 c -5.234,4.145 -10.28,8.514 -15.13,13.09 4.824,5.917 9.369,11.951 13.647,18.088 l -9.169,6.215 11.225,16.553 8.81,-5.972 c 4.037,6.746 7.755,13.602 11.152,20.555 l -9.43,4.242 8.205,18.24 9.332,-4.198 c 2.804,7.033 5.289,14.15 7.449,21.34 -3.024,0.78 -6.256,1.613 -9.883,2.549 l 4.994,19.367 c 3.625,-0.935 6.856,-1.768 9.878,-2.548 1.566,7.244 2.811,14.549 3.728,21.903 -3.117,0.262 -6.452,0.543 -10.193,0.857 l 1.676,19.93 c 3.748,-0.315 7.088,-0.596 10.211,-0.859 0.162,3.678 0.245,7.365 0.245,11.061 0,3.69 -0.083,7.372 -0.245,11.044 l -10.207,-0.86 -1.682,19.93 10.196,0.859 c -0.918,7.354 -2.162,14.657 -3.728,21.901 l -9.874,-2.549 -5.002,19.365 9.886,2.552 c -2.16,7.189 -4.646,14.306 -7.449,21.338 l -9.331,-4.196 -8.208,18.238 9.432,4.242 c -3.398,6.954 -7.115,13.811 -11.153,20.558 -2.685,-1.82 -5.567,-3.774 -8.809,-5.974 l -11.228,16.551 c 3.387,2.297 6.384,4.33 9.171,6.22 -4.278,6.136 -8.822,12.17 -13.646,18.086 4.85,4.576 9.897,8.945 15.13,13.089 5.336,-6.52 10.36,-13.176 15.077,-19.951 l 11.08,7.508 11.223,-16.555 -11.409,-7.732 c 4.667,-7.729 8.936,-15.6 12.819,-23.59 l 12.873,5.79 8.205,-18.24 -12.964,-5.831 c 3.25,-8.081 6.123,-16.265 8.584,-24.544 l 13.774,3.555 5.001,-19.365 -13.794,-3.561 c 1.826,-8.335 3.256,-16.749 4.286,-25.225 l 14.166,1.193 1.679,-19.93 -14.158,-1.193 c 0.199,-4.228 0.305,-8.469 0.305,-12.721 z"
           id="path6475" />
        <path
           inkscape:connector-curvature="0"
           style="opacity:0.3;fill:#5b5b5f;enable-background:new"
           d="M 230,0 V 460 C 357.026,460 460,357.025 460,230 460,102.975 357.026,0 230,0 Z"
           id="path6477" />
        <g
           id="g6479" />
        <g
           id="g6481" />
        <g
           id="g6483" />
        <g
           id="g6485" />
        <g
           id="g6487" />
        <g
           id="g6489" />
        <g
           id="g6491" />
        <g
           id="g6493" />
        <g
           id="g6495" />
        <g
           id="g6497" />
        <g
           id="g6499" />
        <g
           id="g6501" />
        <g
           id="g6503" />
        <g
           id="g6505" />
        <g
           id="g6507" />
      </g>
      <path
         d="m 51.911745,151.15957 a 33.59478,33.59478 0 0 1 -25.863082,39.84087 33.59478,33.59478 0 0 1 -39.852605,-25.845 33.59478,33.59478 0 0 1 25.826912,-39.86433 33.59478,33.59478 0 0 1 39.876046,25.80882"
         sodipodi:open="true"
         sodipodi:end="6.071983"
         sodipodi:start="6.0737982"
         sodipodi:ry="33.59478"
         sodipodi:rx="33.59478"
         sodipodi:cy="158.14259"
         sodipodi:cx="19.050726"
         sodipodi:type="arc"
         id="path7204"
         style="opacity:1;fill:none;fill-opacity:1;stroke:#4a2328;stroke-width:3.39201546;stroke-linecap:round;stroke-linejoin:round;stroke-miterlimit:4;stroke-dasharray:none;stroke-opacity:1" />
    </g>
    <g
       id="g7068"
       transform="matrix(0.11580133,0,0,0.11580133,57.613957,240.65968)">
      <g
         id="g7007">
        <path
           id="path6995"
           d="M 251,324.599 C 117.899,324.599 10,267.883 10,197.92 v 106.16 c 0,69.963 107.899,126.68 241,126.68 133.101,0 241,-56.716 241,-126.68 V 197.92 c 0,69.963 -107.899,126.679 -241,126.679 z"
           style="fill:#999999"
           inkscape:connector-curvature="0" />
        <ellipse
           id="ellipse6997"
           ry="126.679"
           rx="241"
           cy="197.92"
           cx="251"
           style="fill:#808080" />
        <g
           id="g7005">
          <path
             id="path6999"
             d="M 426.065,99.492 C 379.138,74.825 316.965,61.24 251,61.24 185.035,61.24 122.862,74.825 75.935,99.492 26.967,125.231 0,160.188 0,197.92 v 106.16 c 0,37.732 26.967,72.688 75.935,98.428 46.927,24.667 109.1,38.252 175.065,38.252 65.965,0 128.138,-13.585 175.065,-38.252 C 475.033,376.769 502,341.813 502,304.08 V 197.92 c 0,-37.732 -26.967,-72.689 -75.935,-98.428 z M 85.24,117.195 C 129.35,94.01 188.218,81.24 251,81.24 c 62.782,0 121.65,12.77 165.76,35.955 42.071,22.115 65.24,50.784 65.24,80.725 0,29.941 -23.169,58.61 -65.24,80.725 C 372.65,301.83 313.782,314.6 251,314.6 188.218,314.6 129.35,301.83 85.24,278.645 43.169,256.53 20,227.861 20,197.92 20,167.979 43.169,139.31 85.24,117.195 Z M 482,252.141 v 51.939 c 0,29.941 -23.169,58.61 -65.24,80.725 C 372.65,407.99 313.782,420.76 251,420.76 188.218,420.76 129.35,407.99 85.24,384.805 43.169,362.69 20,334.021 20,304.08 v -51.939 -0.014 c 12.855,16.477 31.695,31.48 55.935,44.221 46.927,24.667 109.1,38.252 175.065,38.252 65.965,0 128.138,-13.585 175.065,-38.252 24.24,-12.742 43.079,-27.744 55.935,-44.221 z"
             inkscape:connector-curvature="0"
             style="fill:#4a2328;fill-opacity:1;stroke:#4a2328;stroke-opacity:1" />
          <path
             id="path7001"
             d="m 113.007,146.566 c 1.424,0 2.872,-0.306 4.247,-0.951 10.84,-5.095 23.097,-9.561 36.429,-13.272 5.32,-1.481 8.433,-6.996 6.951,-12.316 -1.481,-5.319 -6.993,-8.433 -12.316,-6.951 -14.407,4.012 -27.721,8.87 -39.571,14.438 -4.998,2.35 -7.146,8.306 -4.797,13.304 1.702,3.623 5.301,5.748 9.057,5.748 z"
             inkscape:connector-curvature="0"
             style="fill:#4a2328;fill-opacity:1;stroke:#4a2328;stroke-opacity:1" />
          <path
             id="path7003"
             d="m 110.719,269.24 c 37.637,17.204 87.457,26.68 140.281,26.68 5.523,0 10,-4.478 10,-10 0,-5.522 -4.477,-10 -10,-10 -109.172,0 -182.508,-40.331 -182.508,-78 0,-7.699 2.909,-15.415 8.647,-22.933 3.351,-4.39 2.508,-10.666 -1.882,-14.017 -4.39,-3.35 -10.665,-2.509 -14.017,1.882 -8.459,11.083 -12.749,22.882 -12.749,35.067 10e-4,27.649 22.1,52.977 62.228,71.321 z"
             inkscape:connector-curvature="0"
             style="fill:#4a2328;fill-opacity:1;stroke:#4a2328;stroke-opacity:1" />
        </g>
      </g>
    </g>
  </g>
</svg>
